<?xml version="1.0" encoding="UTF-8"?><svg id="Capa_1" xmlns="http://www.w3.org/2000/svg" viewBox="0 0 414.41 39.23"><defs><style>.cls-1{fill-rule:evenodd;}.cls-1,.cls-2{fill:#0039e3;}.cls-3{fill:#2d5fff;}</style></defs><path id="path12" class="cls-1" d="M31.12,10.91c-10.67,0-19.52,8.27-20.13,18.81,0,.27.07.51.27.71.17.2.44.3.71.3h7.13c.51,0,.91-.37.98-.91.54-5.67,5.3-9.96,11.08-9.96s10.54,4.29,11.08,9.96c.03.51.47.91.98.91h7.09c.27,0,.54-.1.71-.3s.27-.44.27-.71c-.64-10.57-9.49-18.81-20.16-18.81"/><path id="path14" class="cls-1" d="M31.14,22.5c-4.65,0-8.46,3.75-8.46,8.37s3.81,8.37,8.46,8.37,8.46-3.75,8.46-8.37-3.81-8.37-8.46-8.37"/><path id="path16" class="cls-1" d="M31.14,0c-8.1,0-15.8,3.07-21.65,8.64C3.68,14.22.3,21.68,0,29.68c0,.27.1.51.27.71.2.2.44.3.71.3h7.06c.51,0,.95-.41.98-.91.57-11.72,10.27-20.87,22.12-20.87s21.54,9.15,22.12,20.87c.03.51.44.91.98.91h7.06c.27,0,.51-.1.71-.3s.27-.44.27-.71c-.3-8-3.68-15.47-9.49-21.04C46.94,3.11,39.24,0,31.14,0"/><path id="path18" class="cls-1" d="M102.68,1.35h-9.45c-.15,0-.26.07-.26.22l-5.27,21.48-5.33-21.48c-.04-.11-.15-.22-.26-.22h-9.34c-.15,0-.26.11-.3.26l-1.94,28.8c0,.07.04.15.07.22.04.07.15.07.22.07h5.66c.15,0,.26-.1.3-.25l1.01-23.61,6.56,23.63c.04.11.15.22.26.22l6.07.03c.11,0,.22-.07.26-.22l6.74-24.05.94,23.98c0,.15.15.26.3.26h5.56c.07,0,.15-.04.22-.07.04-.07.07-.15.07-.22l-1.75-28.8c-.04-.15-.19-.26-.34-.26"/><path id="path20" class="cls-1" d="M117.13,8.11c-2.32,0-5.86.37-7.73.78-.11.04-.22.15-.22.26v4.07c0,.07.04.15.11.22.07.04.15.07.22.04,1.31-.3,4.3-.78,7.28-.78,4.97,0,5.12,1.2,5.12,4.33h-.45c-4.48,0-9.56,0-12.14,2.54-1.08,1.05-1.61,2.5-1.61,4.3,0,6.28,4.97,7.21,10.35,7.28.49,0,.97.04,1.46.04,2.5,0,5.12-.19,8.63-.56.15,0,.26-.15.26-.3v-14.75c0-2.2-.64-3.92-1.87-5.12-2.17-2.13-5.79-2.39-9.41-2.35M121.92,21.37v5.27c-1.12.15-2.05.22-3.14.22-2.54,0-4.33-.19-4.33-2.76s1.79-2.76,4.33-2.76c1.53,0,2.58,0,3.14.04"/><path id="path24" class="cls-1" d="M167.35,8.67c0-.15-.11-.3-.3-.3h-.37c-1.94,0-4.33-.04-7.84,1.94v-1.49c0-.15-.11-.3-.3-.3h-5.23c-.15,0-.3.11-.3.3v21.63c0,.15.11.3.3.3h5.9c.15,0,.3-.11.3-.3v-15.43c1.94-1.27,5.12-1.27,7.25-1.27h.34c.15,0,.3-.11.3-.3l-.04-4.78Z"/><path id="path26" class="cls-1" d="M179.93,8.08c-7.36,0-11.92,4.45-11.92,11.54s4.56,11.54,11.92,11.54c6.95,0,11.84-4.74,11.84-11.54,0-7.13-4.56-11.54-11.84-11.54M185.04,19.69c0,4.93-1.49,6.95-5.15,6.95s-5.19-2.02-5.19-6.95,1.49-6.99,5.19-6.99,5.15,2.02,5.15,6.99"/><path class="cls-2" d="M147.13,24.95l3.05,3.05c.35.35.29.94-.13,1.2-1.98,1.26-4.37,1.99-6.94,1.99-6.83,0-12.12-5.17-12.12-11.54s5.28-11.54,12.12-11.54c2.58,0,4.98.74,6.96,2,.42.27.48.85.13,1.2l-3.06,3.06c-.25.25-.64.27-.92.06-.9-.69-2.03-1.1-3.26-1.1h-.54c-2.97,0-5.37,2.4-5.37,5.37v1.92c0,2.97,2.4,5.37,5.37,5.37h.54c1.22,0,2.35-.41,3.25-1.09.28-.21.67-.19.92.06Z"/><path class="cls-3" d="M200.17,30.75V1.59h5v29.16h-5Z"/><path class="cls-3" d="M209.09,30.75l10.71-29.16h5.58l10.67,29.16h-5.29l-8.21-23.33-8.21,23.33h-5.25ZM213.88,23.88l1.33-3.96h14.37l1.33,3.96h-17.04Z"/><path class="cls-3" d="M248.48,30.75V1.59h10.5c2.33,0,4.27.4,5.81,1.19,1.54.79,2.68,1.85,3.42,3.19.74,1.33,1.1,2.86,1.1,4.58,0,1.61-.36,3.08-1.08,4.42-.72,1.33-1.85,2.42-3.38,3.25s-3.49,1.25-5.87,1.25h-5.5v11.29h-5ZM253.48,15.38h5.25c1.94,0,3.35-.44,4.21-1.31.86-.87,1.29-2.06,1.29-3.56s-.43-2.71-1.29-3.56c-.86-.85-2.26-1.27-4.21-1.27h-5.25v9.71Z"/><path class="cls-3" d="M273.52,30.75V.76h5v30h-5Z"/><path class="cls-3" d="M291.06,31.25c-1.69,0-3.12-.29-4.27-.88-1.15-.58-2.01-1.36-2.56-2.33-.56-.97-.83-2.04-.83-3.21,0-1.3.34-2.44,1.02-3.42.68-.97,1.69-1.73,3.02-2.27s2.99-.81,4.96-.81h5.29c0-1.11-.16-2.03-.48-2.77-.32-.74-.8-1.29-1.44-1.67-.64-.38-1.47-.56-2.5-.56-1.14,0-2.11.26-2.92.79-.81.53-1.31,1.32-1.5,2.38h-4.92c.17-1.5.67-2.79,1.52-3.87.85-1.08,1.96-1.92,3.33-2.5s2.87-.88,4.48-.88c2,0,3.7.34,5.1,1.02,1.4.68,2.47,1.65,3.21,2.9.74,1.25,1.1,2.78,1.1,4.58v13h-4.29l-.5-3.33c-.28.56-.63,1.06-1.06,1.52-.43.46-.93.86-1.5,1.21-.57.35-1.2.62-1.9.81-.69.19-1.49.29-2.38.29ZM292.18,27.29c.81,0,1.53-.15,2.17-.44.64-.29,1.18-.71,1.62-1.25.44-.54.8-1.15,1.06-1.83.26-.68.42-1.4.48-2.15v-.08h-4.58c-1,0-1.81.12-2.44.38s-1.09.59-1.4,1.02c-.31.43-.46.94-.46,1.52s.15,1.12.44,1.54c.29.42.71.74,1.25.96.54.22,1.16.33,1.85.33Z"/><path class="cls-3" d="M316.76,30.75c-1.42,0-2.65-.22-3.69-.67-1.04-.44-1.85-1.18-2.42-2.21-.57-1.03-.85-2.42-.85-4.17v-9.79h-3.62v-4.17h3.62l.58-5.54h4.42v5.54h5.67v4.17h-5.67v9.79c0,1.06.22,1.79.67,2.19.44.4,1.22.6,2.33.6h2.58v4.25h-3.62Z"/><path class="cls-3" d="M323.22,13.92v-4.17h12.75v4.17h-12.75ZM326.18,30.75V7.46c0-1.61.28-2.91.83-3.9.56-.99,1.34-1.7,2.35-2.15,1.01-.44,2.23-.67,3.64-.67h2.58v4.25h-1.79c-.94,0-1.62.18-2.02.54-.4.36-.6,1-.6,1.92v23.29h-5Z"/><path class="cls-3" d="M349.22,31.25c-2,0-3.8-.46-5.39-1.38-1.6-.92-2.85-2.21-3.75-3.87-.9-1.67-1.35-3.57-1.35-5.71s.46-4.12,1.38-5.79c.92-1.67,2.17-2.96,3.77-3.87,1.6-.92,3.39-1.38,5.39-1.38s3.79.46,5.37,1.38,2.84,2.2,3.77,3.85,1.4,3.58,1.4,5.77-.47,4.08-1.42,5.75c-.94,1.67-2.21,2.96-3.79,3.87-1.58.92-3.38,1.38-5.38,1.38ZM349.22,26.96c1,0,1.91-.26,2.73-.77.82-.51,1.48-1.27,1.98-2.27s.75-2.22.75-3.67-.24-2.71-.73-3.71c-.49-1-1.14-1.75-1.96-2.25s-1.71-.75-2.69-.75-1.92.25-2.75.75-1.5,1.25-2,2.25c-.5,1-.75,2.24-.75,3.71s.25,2.67.75,3.67c.5,1,1.16,1.76,1.98,2.27.82.51,1.71.77,2.69.77Z"/><path class="cls-3" d="M364.67,30.75V9.76h4.46l.42,3.92c.53-.92,1.15-1.7,1.88-2.35.72-.65,1.6-1.16,2.62-1.52,1.03-.36,2.17-.54,3.42-.54v5.25h-1.79c-.83,0-1.62.1-2.37.31-.75.21-1.4.55-1.94,1.02-.54.47-.96,1.11-1.25,1.92s-.44,1.79-.44,2.96v10.04h-5Z"/><path class="cls-3" d="M381.21,30.75V9.76h4.42l.33,2.83c.67-1.03,1.56-1.84,2.69-2.44,1.12-.6,2.37-.9,3.73-.9,1.08,0,2.05.14,2.9.42.85.28,1.6.69,2.25,1.25.65.56,1.19,1.25,1.6,2.08.75-1.17,1.75-2.08,3-2.75,1.25-.67,2.62-1,4.12-1,1.75,0,3.24.35,4.46,1.06,1.22.71,2.15,1.75,2.77,3.12.62,1.37.94,3.06.94,5.06v12.25h-4.96v-11.79c0-1.78-.36-3.14-1.08-4.08-.72-.94-1.78-1.42-3.17-1.42-.97,0-1.82.24-2.54.73-.72.49-1.29,1.18-1.71,2.08-.42.9-.62,2.01-.62,3.31v11.17h-5v-11.79c0-1.78-.36-3.14-1.08-4.08-.72-.94-1.82-1.42-3.29-1.42-.92,0-1.74.24-2.46.73-.72.49-1.29,1.18-1.69,2.08-.4.9-.6,2.01-.6,3.31v11.17h-5Z"/></svg>