<?xml version="1.0" encoding="UTF-8"?>
<svg id="Capa_1" xmlns="http://www.w3.org/2000/svg" version="1.1" viewBox="0 0 32 32">
  <!-- Generator: Adobe Illustrator 30.2.1, SVG Export Plug-In . SVG Version: 2.1.1 Build 1)  -->
  <defs>
    <style>
      .st0 {
        fill: #0039e3;
        fill-rule: evenodd;
      }
    </style>
  </defs>
  <path id="path12" class="st0" d="M15.99,11.94c-4.97,0-9.1,3.86-9.38,8.77,0,.13.03.24.13.33.08.09.2.14.33.14h3.32c.24,0,.42-.17.46-.42.25-2.64,2.47-4.64,5.16-4.64s4.91,2,5.16,4.64c.02.24.22.42.46.42h3.31c.13,0,.25-.05.33-.14s.13-.2.13-.33c-.3-4.93-4.42-8.77-9.4-8.77"/>
  <path id="path14" class="st0" d="M16,17.34c-2.17,0-3.94,1.75-3.94,3.9s1.78,3.9,3.94,3.9,3.94-1.75,3.94-3.9-1.78-3.9-3.94-3.9"/>
  <path id="path16" class="st0" d="M16,6.86c-3.78,0-7.37,1.43-10.09,4.03-2.71,2.6-4.28,6.07-4.42,9.8,0,.13.05.24.13.33.09.09.2.14.33.14h3.29c.24,0,.44-.19.46-.42.27-5.46,4.78-9.73,10.31-9.73s10.04,4.27,10.31,9.73c.02.24.2.42.46.42h3.29c.13,0,.24-.05.33-.14s.13-.2.13-.33c-.14-3.73-1.72-7.21-4.42-9.8-2.72-2.58-6.31-4.03-10.09-4.03"/>
</svg>