<svg id="Grupo_16" data-name="Grupo 16" xmlns="http://www.w3.org/2000/svg" width="32.684" height="20.592" viewBox="0 0 32.684 20.592">
  <path id="path12" d="M21.556,15.566a10.547,10.547,0,0,0-10.564,9.872.492.492,0,0,0,.142.372.482.482,0,0,0,.372.16h3.74a.519.519,0,0,0,.514-.478,5.846,5.846,0,0,1,11.627,0,.52.52,0,0,0,.514.478h3.722a.482.482,0,0,0,.372-.16.571.571,0,0,0,.142-.372,10.562,10.562,0,0,0-10.581-9.872" transform="translate(-5.223 -9.841)" fill="#0039e3" fill-rule="evenodd"/>
  <path id="path14" d="M27.114,27.155a4.393,4.393,0,1,0,4.441,4.392,4.424,4.424,0,0,0-4.441-4.392" transform="translate(-10.772 -15.347)" fill="#0039e3" fill-rule="evenodd"/>
  <path id="path16" d="M16.342,4.659A16.4,16.4,0,0,0,4.981,9.2,16.081,16.081,0,0,0,0,20.239a.572.572,0,0,0,.142.372.512.512,0,0,0,.372.16h3.7a.52.52,0,0,0,.514-.479,11.629,11.629,0,0,1,23.219,0,.508.508,0,0,0,.514.479h3.7a.512.512,0,0,0,.372-.16.493.493,0,0,0,.142-.372A16.081,16.081,0,0,0,27.7,9.2,16.477,16.477,0,0,0,16.342,4.659" transform="translate(0 -4.659)" fill="#0039e3" fill-rule="evenodd"/>
</svg>
