<?xml version="1.0" encoding="UTF-8"?>
<svg id="Capa_1" xmlns="http://www.w3.org/2000/svg" version="1.1" viewBox="0 0 191.77 39.24">
  <!-- Generator: Adobe Illustrator 30.2.1, SVG Export Plug-In . SVG Version: 2.1.1 Build 1)  -->
  <defs>
    <style>
      .st0 {
        fill-rule: evenodd;
      }

      .st0, .st1 {
        fill: #0039e3;
      }
    </style>
  </defs>
  <path id="path12" class="st0" d="M31.12,10.91c-10.67,0-19.52,8.27-20.13,18.81,0,.27.07.51.27.71.17.2.44.3.71.3h7.13c.51,0,.91-.37.98-.91.54-5.67,5.3-9.96,11.08-9.96s10.54,4.29,11.08,9.96c.03.51.47.91.98.91h7.09c.27,0,.54-.1.71-.3s.27-.44.27-.71c-.64-10.57-9.49-18.81-20.16-18.81"/>
  <path id="path14" class="st0" d="M31.14,22.5c-4.65,0-8.46,3.75-8.46,8.37s3.81,8.37,8.46,8.37,8.46-3.75,8.46-8.37-3.81-8.37-8.46-8.37"/>
  <path id="path16" class="st0" d="M31.14,0c-8.1,0-15.8,3.07-21.65,8.64C3.68,14.22.3,21.68,0,29.68c0,.27.1.51.27.71.2.2.44.3.71.3h7.06c.51,0,.95-.41.98-.91.57-11.72,10.27-20.87,22.12-20.87s21.54,9.15,22.12,20.87c.03.51.44.91.98.91h7.06c.27,0,.51-.1.71-.3s.27-.44.27-.71c-.3-8-3.68-15.47-9.49-21.04C46.94,3.11,39.24,0,31.14,0"/>
  <path id="path18" class="st0" d="M102.68,1.35h-9.45c-.15,0-.26.07-.26.22l-5.27,21.48-5.33-21.48c-.04-.11-.15-.22-.26-.22h-9.34c-.15,0-.26.11-.3.26l-1.94,28.8c0,.07.04.15.07.22.04.07.15.07.22.07h5.66c.15,0,.26-.1.3-.25l1.01-23.61,6.56,23.63c.04.11.15.22.26.22l6.07.03c.11,0,.22-.07.26-.22l6.74-24.05.94,23.98c0,.15.15.26.3.26h5.56c.07,0,.15-.04.22-.07.04-.07.07-.15.07-.22l-1.75-28.8c-.04-.15-.19-.26-.34-.26"/>
  <path id="path20" class="st0" d="M117.13,8.11c-2.32,0-5.86.37-7.73.78-.11.04-.22.15-.22.26v4.07c0,.07.04.15.11.22.07.04.15.07.22.04,1.31-.3,4.3-.78,7.28-.78,4.97,0,5.12,1.2,5.12,4.33h-.45c-4.48,0-9.56,0-12.14,2.54-1.08,1.05-1.61,2.5-1.61,4.3,0,6.28,4.97,7.21,10.35,7.28.49,0,.97.04,1.46.04,2.5,0,5.12-.19,8.63-.56.15,0,.26-.15.26-.3v-14.75c0-2.2-.64-3.92-1.87-5.12-2.17-2.13-5.79-2.39-9.41-2.35M121.92,21.37v5.27c-1.12.15-2.05.22-3.14.22-2.54,0-4.33-.19-4.33-2.76s1.79-2.76,4.33-2.76c1.53,0,2.58,0,3.14.04"/>
  <path id="path24" class="st0" d="M167.35,8.67c0-.15-.11-.3-.3-.3h-.37c-1.94,0-4.33-.04-7.84,1.94v-1.49c0-.15-.11-.3-.3-.3h-5.23c-.15,0-.3.11-.3.3v21.63c0,.15.11.3.3.3h5.9c.15,0,.3-.11.3-.3v-15.43c1.94-1.27,5.12-1.27,7.25-1.27h.34c.15,0,.3-.11.3-.3l-.04-4.78h-.01Z"/>
  <path id="path26" class="st0" d="M179.93,8.08c-7.36,0-11.92,4.45-11.92,11.54s4.56,11.54,11.92,11.54c6.95,0,11.84-4.74,11.84-11.54s-4.56-11.54-11.84-11.54M185.04,19.69c0,4.93-1.49,6.95-5.15,6.95s-5.19-2.02-5.19-6.95,1.49-6.99,5.19-6.99,5.15,2.02,5.15,6.99"/>
  <path class="st1" d="M147.13,24.95l3.05,3.05c.35.35.29.94-.13,1.2-1.98,1.26-4.37,1.99-6.94,1.99-6.83,0-12.12-5.17-12.12-11.54s5.28-11.54,12.12-11.54c2.58,0,4.98.74,6.96,2,.42.27.48.85.13,1.2l-3.06,3.06c-.25.25-.64.27-.92.06-.9-.69-2.03-1.1-3.26-1.1h-.54c-2.97,0-5.37,2.4-5.37,5.37v1.92c0,2.97,2.4,5.37,5.37,5.37h.54c1.22,0,2.35-.41,3.25-1.09.28-.21.67-.19.92.06h0Z"/>
</svg>